<?xml version="1.0" standalone="no"?>
<!DOCTYPE svg PUBLIC "-//W3C//DTD SVG 20010904//EN"
 "http://www.w3.org/TR/2001/REC-SVG-20010904/DTD/svg10.dtd">
<svg version="1.0" xmlns="http://www.w3.org/2000/svg"
 width="492.000000pt" height="216.000000pt" viewBox="0 0 492.000000 216.000000"
 preserveAspectRatio="xMidYMid meet">

<g transform="translate(0.000000,216.000000) scale(0.100000,-0.100000)"
fill="#000000" stroke="none">
<path d="M1660 2124 c-6 -14 -10 -34 -10 -44 0 -11 -7 -52 -15 -92 -8 -40 -36
-181 -60 -313 -25 -132 -55 -285 -65 -340 -11 -55 -29 -147 -40 -205 -11 -58
-33 -174 -49 -259 -17 -85 -28 -158 -25 -163 3 -4 200 -8 438 -8 335 0 436 3
444 13 11 13 42 176 42 220 l0 27 -274 0 c-217 0 -276 3 -285 14 -8 10 -5 48
15 152 14 76 31 150 37 164 l13 25 282 3 283 2 10 28 c16 41 42 201 35 218 -4
12 -50 14 -281 14 -227 0 -277 2 -281 14 -7 18 44 267 58 283 13 17 653 19
663 3 4 -6 -1 -43 -9 -83 -8 -39 -27 -135 -41 -212 -14 -77 -30 -160 -35 -185
-5 -25 -30 -153 -55 -285 -25 -132 -53 -275 -61 -317 -8 -43 -12 -82 -9 -88 7
-12 853 -14 872 -2 13 8 53 176 53 225 l0 27 -274 0 c-235 0 -275 2 -286 15
-11 13 -9 38 13 143 15 70 27 137 27 149 0 51 13 53 274 53 194 0 246 3 255
14 13 16 51 215 44 234 -4 9 -64 12 -254 12 l-249 0 0 25 c0 14 9 67 20 118
10 50 21 104 24 119 3 15 7 32 11 38 4 6 102 10 269 10 199 0 266 3 274 13 9
11 52 203 52 233 0 12 -151 14 -920 14 l-920 0 -10 -26z"/>
<path d="M4108 1773 c7 -3 16 -2 19 1 4 3 -2 6 -13 5 -11 0 -14 -3 -6 -6z"/>
<path d="M3794 1658 l-19 -23 23 19 c21 18 27 26 19 26 -2 0 -12 -10 -23 -22z"/>
<path d="M4912 910 c0 -14 2 -19 5 -12 2 6 2 18 0 25 -3 6 -5 1 -5 -13z"/>
<path d="M990 182 c0 -168 0 -170 23 -176 53 -14 136 3 168 35 39 39 17 139
-31 139 -9 0 -6 8 8 23 35 37 38 79 9 113 -23 26 -32 29 -101 32 l-76 4 0
-170z m132 111 c10 -9 18 -22 18 -30 0 -23 -47 -63 -75 -63 -24 0 -25 3 -25
55 l0 55 32 0 c17 0 40 -7 50 -17z m18 -153 c25 -25 25 -41 2 -70 -13 -16 -30
-23 -58 -24 l-39 -1 -3 58 -3 57 41 0 c27 0 47 -7 60 -20z"/>
<path d="M1893 273 c-47 -116 -103 -262 -103 -268 0 -3 11 -5 24 -5 19 0 27
10 43 53 l20 52 67 3 67 3 24 -56 c18 -40 30 -55 45 -55 11 0 20 6 20 13 0 7
-29 85 -64 172 -56 140 -66 160 -88 163 -21 3 -27 -5 -55 -75z m82 -56 l25
-67 -50 0 c-28 0 -50 3 -50 8 0 11 43 132 47 129 1 -2 14 -33 28 -70z"/>
<path d="M2720 175 c0 -168 1 -175 20 -175 18 0 20 8 22 139 l3 139 105 -139
c81 -108 109 -139 127 -139 l23 0 0 175 0 175 -26 0 -26 0 4 -130 c2 -72 1
-130 -3 -130 -4 0 -29 30 -55 68 -104 145 -145 192 -170 192 l-24 0 0 -175z"/>
<path d="M3680 175 c0 -168 1 -175 20 -175 18 0 20 7 20 75 0 41 3 75 7 75 4
0 39 -34 78 -76 61 -66 74 -76 99 -73 30 4 29 4 -54 92 l-83 88 34 37 c19 20
54 58 79 85 l44 47 -30 0 c-26 0 -42 -12 -93 -70 -35 -38 -67 -70 -72 -70 -5
0 -9 32 -9 70 0 63 -2 70 -20 70 -19 0 -20 -7 -20 -175z"/>
</g>
</svg>
